<svg width="18" height="18" viewBox="0 0 18 18" fill="none" xmlns="http://www.w3.org/2000/svg">
<path fill-rule="evenodd" clip-rule="evenodd" d="M2.14551 9.00024C2.14551 5.13425 5.27951 2.00024 9.14551 2.00024C13.0115 2.00024 16.1455 5.13425 16.1455 9.00024C16.1455 12.5699 13.4735 15.5155 10.0205 15.9461V10.7502H11.7705C12.2538 10.7502 12.6455 10.3585 12.6455 9.87524C12.6455 9.39198 12.2538 9.00024 11.7705 9.00024H10.0205V7.25024C10.0205 6.767 10.4122 6.37524 10.8955 6.37524H11.333C11.8163 6.37524 12.208 5.98349 12.208 5.50024C12.208 5.017 11.8163 4.62524 11.333 4.62524H10.8955C9.44572 4.62524 8.27051 5.8005 8.27051 7.25024V9.00024H6.52051C6.03726 9.00024 5.64551 9.39198 5.64551 9.87524C5.64551 10.3585 6.03726 10.7502 6.52051 10.7502H8.27051V15.9461C4.81749 15.5155 2.14551 12.5699 2.14551 9.00024ZM9.14551 17.7502C13.978 17.7502 17.8955 13.8327 17.8955 9.00024C17.8955 4.16775 13.978 0.250244 9.14551 0.250244C4.31301 0.250244 0.395508 4.16775 0.395508 9.00024C0.395508 13.8327 4.31301 17.7502 9.14551 17.7502Z" fill="#45564D"/>
</svg>
