<svg width="17" height="16" viewBox="0 0 17 16" fill="none" xmlns="http://www.w3.org/2000/svg">
<path fill-rule="evenodd" clip-rule="evenodd" d="M11.8242 0.125C14.2404 0.125 16.1992 2.08376 16.1992 4.5V11.5C16.1992 13.9162 14.2404 15.875 11.8242 15.875H4.82422C2.40798 15.875 0.449219 13.9162 0.449219 11.5L0.449219 4.5C0.449219 2.08376 2.40798 0.125 4.82422 0.125L11.8242 0.125ZM11.8242 1.875L4.82422 1.875C3.37448 1.875 2.19922 3.05026 2.19922 4.5L2.19922 11.5C2.19922 12.9498 3.37448 14.125 4.82422 14.125H11.8242C13.274 14.125 14.4492 12.9498 14.4492 11.5V4.5C14.4492 3.05026 13.274 1.875 11.8242 1.875ZM8.32422 4.5C10.2572 4.5 11.8242 6.067 11.8242 8C11.8242 9.93296 10.2572 11.5 8.32422 11.5C6.39122 11.5 4.82422 9.93296 4.82422 8C4.82422 6.067 6.39122 4.5 8.32422 4.5ZM8.32422 6.25C7.35769 6.25 6.57422 7.03347 6.57422 8C6.57422 8.96653 7.35769 9.75 8.32422 9.75C9.29074 9.75 10.0742 8.96653 10.0742 8C10.0742 7.03347 9.29074 6.25 8.32422 6.25ZM12.2617 3.1875C12.745 3.1875 13.1367 3.57926 13.1367 4.0625C13.1367 4.54574 12.745 4.9375 12.2617 4.9375C11.7785 4.9375 11.3867 4.54574 11.3867 4.0625C11.3867 3.57926 11.7785 3.1875 12.2617 3.1875Z" fill="#45564D"/>
</svg>
