<svg width="19" height="18" viewBox="0 0 19 18" fill="none" xmlns="http://www.w3.org/2000/svg">
<path fill-rule="evenodd" clip-rule="evenodd" d="M9.50098 0.250244C4.66848 0.250244 0.750977 4.16775 0.750977 9.00024C0.750977 13.8327 4.66848 17.7502 9.50098 17.7502C14.3334 17.7502 18.251 13.8327 18.251 9.00024C18.251 4.16775 14.3334 0.250244 9.50098 0.250244ZM2.50098 9.00024C2.50098 5.13425 5.63498 2.00024 9.50098 2.00024C13.367 2.00024 16.501 5.13425 16.501 9.00024C16.501 12.8663 13.367 16.0002 9.50098 16.0002C8.92103 16.0002 8.35753 15.9297 7.81861 15.7967L8.44669 12.8439C9.04755 13.3656 9.79436 13.5642 10.5106 13.5511C11.2968 13.5367 12.0862 13.2709 12.746 12.8557C13.4042 12.4415 13.9923 11.8411 14.3143 11.0995C14.5954 10.4555 14.751 9.74487 14.751 9.00024C14.751 6.10075 12.4005 3.75024 9.50098 3.75024C6.60148 3.75024 4.25098 6.10075 4.25098 9.00024C4.25098 9.74531 4.4067 10.4562 4.6882 11.1006C4.88168 11.5434 5.39751 11.7456 5.84034 11.5521C6.28316 11.3585 6.48531 10.8427 6.29183 10.3999C6.10504 9.97237 6.00098 9.49961 6.00098 9.00024C6.00098 7.06725 7.56798 5.50024 9.50098 5.50024C11.4339 5.50024 13.001 7.06725 13.001 9.00024C13.001 9.95828 12.643 10.8529 11.814 11.3745C11.3868 11.6434 10.9046 11.7936 10.4785 11.8014C10.0614 11.8091 9.74125 11.6838 9.52023 11.452C9.30305 11.2241 9.06426 10.7854 9.06426 9.96266C9.06426 9.43774 9.26438 9.00024 9.50483 7.86974C9.60536 7.39707 9.30375 6.93241 8.83108 6.83186C8.3584 6.73131 7.89369 7.03298 7.79315 7.50566L6.1657 15.1561C3.98289 13.9709 2.50098 11.6587 2.50098 9.00024Z" fill="#45564D"/>
</svg>
