<svg width="50" height="50" viewBox="0 0 50 50" fill="none" xmlns="http://www.w3.org/2000/svg">
<g clip-path="url(#clip0_11724_1234)">
<path d="M21.1237 43.9177H7.2793C6.68604 43.9177 6.20508 43.4367 6.20508 42.8435V34.5641C6.20508 33.9708 6.68604 33.4898 7.2793 33.4898H21.1237C21.717 33.4898 22.1979 33.9708 22.1979 34.5641V42.8435C22.1979 43.4367 21.717 43.9177 21.1237 43.9177ZM8.35352 41.7692H20.0495V35.6383H8.35352V41.7692Z" fill="#15281E"/>
<path d="M21.1521 29.6875H7.2793C6.68604 29.6875 6.20508 29.2065 6.20508 28.6133C6.20508 28.02 6.68604 27.5391 7.2793 27.5391H21.1521C21.7454 27.5391 22.2264 28.02 22.2264 28.6133C22.2264 29.2065 21.7454 29.6875 21.1521 29.6875Z" fill="#15281E"/>
<path d="M48.9258 0H30.5323C31.1256 0 31.6065 0.480957 31.6065 1.07422V2.14844H47.8516V11.0668H31.6065V13.2152H47.8516V47.8516H2.14844V13.2152H18.1882V11.0668H2.14844V2.14844H18.1882V1.07422C18.1882 0.480957 18.6691 0 19.2624 0H1.07422C0.480957 0 0 0.480957 0 1.07422V48.9258C0 49.519 0.480957 50 1.07422 50H48.9258C49.519 50 50 49.519 50 48.9258V1.07422C50 0.480957 49.519 0 48.9258 0Z" fill="#15281E"/>
<path d="M29.458 11.0668H20.3364V13.2152H29.458V11.0668Z" fill="#15281E"/>
<path d="M30.5321 21.5484H19.2622C18.6689 21.5484 18.188 21.0675 18.188 20.4742V1.07422C18.188 0.480957 18.6689 0 19.2622 0H30.5322C31.1255 0 31.6064 0.480957 31.6064 1.07422V20.4742C31.6063 21.0675 31.1255 21.5484 30.5321 21.5484ZM20.3364 19.4H29.458V2.14844H20.3364V19.4Z" fill="#17BD8D"/>
</g>
<defs>
<clipPath id="clip0_11724_1234">
<rect width="50" height="50" fill="white"/>
</clipPath>
</defs>
</svg>
