<svg width="50" height="40" viewBox="0 0 50 40" fill="none" xmlns="http://www.w3.org/2000/svg">
<path d="M48.9259 27.157H44.8707C44.2774 27.157 43.7965 26.6761 43.7965 26.0828C43.7965 25.4895 44.2774 25.0086 44.8707 25.0086H47.8517V2.82578H13.9087V5.80673C13.9087 6.39999 13.4277 6.88095 12.8345 6.88095C12.2412 6.88095 11.7603 6.39999 11.7603 5.80673V1.75156C11.7603 1.15829 12.2412 0.677338 12.8345 0.677338H48.9259C49.5191 0.677338 50.0001 1.15829 50.0001 1.75156V26.0828C50.0001 26.6761 49.5191 27.157 48.9259 27.157Z" fill="#17BD8D"/>
<path d="M36.7602 20.9534H1.07422V23.1018H36.7602V20.9534Z" fill="#17BD8D"/>
<path d="M36.7602 39.3227H1.07422C0.480957 39.3227 0 38.8418 0 38.2485V13.9172C0 13.3239 0.480957 12.843 1.07422 12.843H36.7602C37.3534 12.843 37.8344 13.3239 37.8344 13.9172V38.2485C37.8344 38.8418 37.3534 39.3227 36.7602 39.3227ZM2.14844 37.1743H35.6859V14.9914H2.14844V37.1743Z" fill="#15281E"/>
<path d="M29.0552 31.2122H25C24.4067 31.2122 23.9258 30.7312 23.9258 30.138C23.9258 29.5447 24.4067 29.0638 25 29.0638H29.0552C29.6484 29.0638 30.1294 29.5447 30.1294 30.138C30.1294 30.7312 29.6485 31.2122 29.0552 31.2122Z" fill="#15281E"/>
</svg>
