<svg width="50" height="50" viewBox="0 0 50 50" fill="none" xmlns="http://www.w3.org/2000/svg">
<g clip-path="url(#clip0_11724_1249)">
<path d="M25.0129 49.9997C18.3435 49.9997 12.0734 47.4025 7.35753 42.6867C2.64161 37.9707 0.0444336 31.7006 0.0444336 25.0313C0.0444336 18.362 2.64161 12.0919 7.35744 7.37596C12.0735 2.66013 18.3434 0.0629578 25.0128 0.0629578C29.3048 0.0629578 33.3609 1.10559 37.0681 3.16207C37.5867 3.44975 37.7739 4.10328 37.4862 4.62192C37.1987 5.14065 36.5449 5.32778 36.0264 5.04011C32.6416 3.16266 28.936 2.21061 25.0128 2.21061C12.4294 2.21061 2.19199 12.448 2.19199 25.0314C2.19199 37.6149 12.4294 47.8523 25.0128 47.8523C37.5961 47.8523 47.8335 37.6149 47.8335 25.0314C47.8335 21.7059 47.2486 18.8506 45.9928 16.0455C45.7505 15.5042 45.9929 14.8691 46.5341 14.6267C47.0751 14.3846 47.7106 14.6266 47.9529 15.168C49.3366 18.2588 49.981 21.3929 49.981 25.0313C49.981 31.7006 47.3839 37.9707 42.668 42.6866C37.9523 47.4025 31.6822 49.9997 25.0129 49.9997Z" fill="#15281E"/>
<path d="M49.7186 7.64148L48.1255 0.894258C48.0601 0.617028 47.8873 0.376893 47.6443 0.22754C47.4022 0.0781877 47.1113 0.0303558 46.8331 0.0957586L40.0868 1.68885C34.9405 2.90417 31.7426 8.07977 32.957 13.2261L34.4622 19.5994C29.5843 28.7753 26.6158 38.2626 25.0598 44.1713C23.1651 36.0516 20.9395 28.8427 18.4249 22.6909C16.0313 16.8359 13.3693 11.9122 10.5131 8.05537C5.52687 1.32377 1.60075 0.113329 1.43578 0.0645215C1.43578 0.0645215 0.437171 -0.290801 0.104301 0.665836C-0.207095 1.56195 0.403006 1.92215 0.832516 2.12617C0.832516 2.12617 4.40233 3.30342 9.00103 9.62406C13.2747 15.4996 19.3395 27.1227 23.9587 49.1293C24.0456 49.5842 24.4214 49.9434 24.8968 49.9951C24.93 49.9981 24.9661 50 25.0042 50C25.3683 50 25.915 49.8135 26.077 49.099C26.0868 49.0541 26.1024 48.9867 26.1219 48.8979C27.0756 44.5667 30.129 32.3325 36.3296 20.6556L42.5887 19.1777C45.0819 18.5891 47.1962 17.0653 48.5433 14.8856C49.8894 12.7068 50.3072 10.1336 49.7186 7.64148ZM46.6855 13.7385C45.6773 15.3692 44.0613 16.6236 42.0957 17.0878L37.7332 18.1176C39.5206 15.0183 41.5412 12.003 43.8128 9.23652C44.1886 8.7787 44.1222 8.10125 43.6644 7.72543C43.2056 7.34863 42.5291 7.41598 42.1533 7.8738C39.8613 10.6646 37.8201 13.6956 36.0113 16.8115L35.0478 12.7322C34.1039 8.73868 36.5862 4.72178 40.5807 3.77881L46.2815 2.43269C46.2815 2.43269 47.6282 8.13288 47.6286 8.13444C48.0936 10.1027 47.6933 12.1085 46.6855 13.7385Z" fill="#17BD8D"/>
</g>
<defs>
<clipPath id="clip0_11724_1249">
<rect width="50" height="50" fill="white"/>
</clipPath>
</defs>
</svg>
