<svg width="50" height="50" viewBox="0 0 50 50" fill="none" xmlns="http://www.w3.org/2000/svg">
<path d="M43.7977 37.9866C43.5 39.068 42.7646 39.9694 41.795 40.4881V42.9682C41.795 44.018 40.9408 44.8722 39.8909 44.8722H28.9185C28.4596 43.1273 26.8342 41.8487 24.9511 41.894C19.6259 42.1034 19.628 49.7905 24.9511 49.9989C26.8341 50.044 28.4595 48.7656 28.9185 47.0206H39.8909C42.1254 47.0206 43.9433 45.2027 43.9433 42.9682V37.9866H43.7977ZM26.9038 45.995C26.8228 48.4657 23.1763 48.4651 23.0957 45.995C23.0453 44.9392 23.8907 44.0393 24.9511 44.0424C26.0447 43.9872 26.9591 44.9013 26.9038 45.995Z" fill="#17BD8D"/>
<path d="M45.9469 20.947H43.9435V19.0429C43.9435 8.54267 35.4455 0 24.9999 0C14.5543 0 6.0563 8.54267 6.0563 19.0429V20.947H4.05293C1.81841 20.947 0.000488281 22.7649 0.000488281 24.9994V33.9342C0.000488281 36.1687 1.81841 37.9866 4.05293 37.9866H6.20191C6.67396 39.7012 8.2461 40.9648 10.1087 40.9648C12.3433 40.9648 14.1611 39.1469 14.1611 36.9124V22.0212C14.1611 19.7866 12.3433 17.9687 10.1087 17.9687C9.42556 17.9687 8.78183 18.1393 8.2166 18.4391C8.53378 9.40212 15.94 2.14839 24.9999 2.14839C34.0597 2.14839 41.4659 9.40212 41.7833 18.4391C41.2181 18.1393 40.5742 17.9687 39.8912 17.9687C37.6566 17.9687 35.8388 19.7866 35.8388 22.0212V36.9124C35.8388 39.1469 37.6566 40.9648 39.8912 40.9648C41.7537 40.9648 43.3259 39.7012 43.798 37.9866H45.947C48.1815 37.9866 49.9994 36.1687 49.9994 33.9342V24.9994C49.9993 22.7649 48.1814 20.947 45.9469 20.947ZM2.14888 33.9342V24.9994C2.14888 23.9495 3.00305 23.0954 4.05293 23.0954H6.0563V35.8382H4.05293C3.00305 35.8382 2.14888 34.984 2.14888 33.9342ZM10.1087 20.1171C11.1586 20.1171 12.0127 20.9713 12.0127 22.0212V36.9124C12.0127 37.9623 11.1586 38.8164 10.1087 38.8164C9.05887 38.8164 8.20469 37.9623 8.20469 36.9124V22.0212C8.20469 20.9713 9.05887 20.1171 10.1087 20.1171ZM39.8911 38.8164C38.8412 38.8164 37.9871 37.9623 37.9871 36.9124V22.0212C37.9871 20.9713 38.8412 20.1171 39.8911 20.1171C40.9409 20.1171 41.7951 20.9713 41.7951 22.0212V36.9124C41.7951 37.9623 40.9409 38.8164 39.8911 38.8164ZM47.8509 33.9342C47.8509 34.984 46.9967 35.8382 45.9469 35.8382H43.9435V23.0954H45.9469C46.9967 23.0954 47.8509 23.9495 47.8509 24.9994V33.9342Z" fill="#15281E"/>
</svg>
